<?xml version="1.0"?>
<svg version="1.1" id="圖層_1" xmlns="http://www.w3.org/2000/svg" x="0" y="0" viewBox="0 0 100 100" xml:space="preserve"><path fill="none" stroke="#000" stroke-width="1.5" stroke-miterlimit="10" d="M69.676 18.71v11.828"/><circle cx="69.676" cy="25.369" r="1.927"/><path d="M71.603 39.315H67.75v-9.068a1.926 1.926 0 1 1 3.852 0v9.068z"/><path d="M60.27 51.083l-9.318 17.608c-.365.975-1.54.975-1.905 0L39.73 51.083c-7.257 3.584-12.23 10.83-12.23 19.205v14.467c0 2.984 2.52 5.403 5.628 5.403h33.745c3.108 0 5.628-2.419 5.628-5.403V70.288c-.001-8.375-4.974-15.621-12.231-19.205z"/><path d="M50.953 68.691l9.318-17.608a23.128 23.128 0 0 0-10.27-2.397c-3.704 0-7.189.875-10.27 2.397l9.318 17.608c.363.975 1.539.975 1.904 0z" fill="#ccc"/><circle cx="50" cy="39.172" r="14.513" fill="#c7b299"/><path d="M61.747 31.663c-7.831 5.378-15.662 5.378-23.493 0a3.837 3.837 0 0 1-1.646-3.165v-8.963c8.929 5.21 17.857 5.21 26.786 0v8.963a3.843 3.843 0 0 1-1.647 3.165z" fill="#4d4d4d"/><path d="M72.865 19.591l-22.51 8.06a.88.88 0 0 1-.711 0l-22.51-8.06c-.861-.309-.861-1.305 0-1.614l22.51-8.06a.88.88 0 0 1 .711 0l22.51 8.06c.861.309.861 1.305 0 1.614z"/><metadata xmlns:d="https://loading.io/stock/"><d:name>graduate</d:name><d:tags>job,master,phd,student,bachelor,graduate,people</d:tags><d:license>pro</d:license><d:slug>8bk2mc</d:slug></metadata></svg>