<svg xmlns="http://www.w3.org/2000/svg" viewBox="-14816.844 -1134.5 42.895 32.342">
  <defs>
    <style>
      .cls-1 {
        fill: #7c7d81;
      }

      .cls-2 {
        fill: none;
        stroke: #7c7d81;
        stroke-linecap: round;
        stroke-linejoin: round;
        stroke-miterlimit: 10;
      }
    </style>
  </defs>
  <g id="Symbol_24_1" data-name="Symbol 24 – 1" transform="translate(-15895 -1595)">
    <path id="XMLID_41_" class="cls-1" d="M943.238,264.745h-2.293v1.445h2.073v.314h-2.073v1.822H940.6V264.4h2.669v.345Z" transform="translate(140.757 218.049)"/>
    <path id="XMLID_38_" class="cls-1" d="M940.777,268.388h-.345a.031.031,0,0,1-.031-.031v-3.926a.031.031,0,0,1,.031-.031H943.1a.031.031,0,0,1,.031.031v.314a.031.031,0,0,1-.031.031H940.84v1.382h2.041a.031.031,0,0,1,.031.031v.314a.031.031,0,0,1-.031.031H940.84v1.79C940.808,268.357,940.808,268.388,940.777,268.388Zm-.314-.094h.251V266.5a.031.031,0,0,1,.031-.031h2.041v-.251h-2.041a.031.031,0,0,1-.031-.031v-1.445a.031.031,0,0,1,.031-.031h2.261v-.251h-2.575v3.831Z" transform="translate(140.894 218.049)"/>
    <path id="XMLID_35_" class="cls-1" d="M950.8,270.621v-2.889h.345v.659h.031a1.215,1.215,0,0,1,1.068-.691h.126v.314h-.157a1.228,1.228,0,0,0-1.068,1.35v1.225H950.8Z" transform="translate(133.76 215.785)"/>
    <path id="XMLID_32_" class="cls-1" d="M951.077,270.583h-.345a.031.031,0,0,1-.031-.031v-2.889a.031.031,0,0,1,.031-.031h.345a.031.031,0,0,1,.032.031v.6a1.259,1.259,0,0,1,1.068-.66h.126a.031.031,0,0,1,.031.031v.345h-.188a1.217,1.217,0,0,0-1.036,1.319v1.225C951.108,270.552,951.108,270.583,951.077,270.583Zm-.283-.094h.251v-1.162a1.273,1.273,0,0,1,1.1-1.413h.126v-.251h-.094a1.251,1.251,0,0,0-1.036.659l-.031.031h-.031a.031.031,0,0,1-.031-.031v-.628h-.251Z" transform="translate(133.829 215.854)"/>
    <path id="XMLID_28_" class="cls-1" d="M956.6,269.107a1.421,1.421,0,0,1,1.35-1.507,1.339,1.339,0,0,1,1.287,1.507v.094h-2.292a1.073,1.073,0,0,0,1.036,1.068.933.933,0,0,0,.879-.66l.314.126a1.33,1.33,0,0,1-1.225.816A1.346,1.346,0,0,1,956.6,269.107Zm.345-.22h1.947a.971.971,0,0,0-.942-.974A1.073,1.073,0,0,0,956.946,268.888Z" transform="translate(129.782 215.854)"/>
    <path id="XMLID_23_" class="cls-1" d="M957.813,270.478a1.459,1.459,0,0,1-1.413-1.539,1.44,1.44,0,0,1,1.413-1.539,1.371,1.371,0,0,1,1.319,1.539v.094a.031.031,0,0,1-.031.031H956.84a1.033,1.033,0,0,0,1.005,1,.893.893,0,0,0,.848-.628.031.031,0,0,1,.031-.031h.031l.314.126c.031,0,.031.031.031.063A1.378,1.378,0,0,1,957.813,270.478Zm0-2.983a1.451,1.451,0,0,0,0,2.889,1.248,1.248,0,0,0,1.162-.785l-.22-.094a.971.971,0,0,1-.911.628,1.119,1.119,0,0,1-1.1-1.131v-.031h2.292v-.063A1.244,1.244,0,0,0,957.813,267.494Zm.942,1.288h-1.979v-.031a1.059,1.059,0,0,1,1.036-1,1.027,1.027,0,0,1,.974,1,.031.031,0,0,1-.031.031Zm-1.884-.063h1.853a.942.942,0,0,0-.879-.879A.96.96,0,0,0,956.871,268.719Z" transform="translate(129.919 215.991)"/>
    <path id="XMLID_19_" class="cls-1" d="M966.9,269.107a1.421,1.421,0,0,1,1.35-1.507,1.339,1.339,0,0,1,1.288,1.507v.094h-2.293a1.073,1.073,0,0,0,1.036,1.068.933.933,0,0,0,.879-.66l.314.126a1.343,1.343,0,0,1-2.575-.628Zm.345-.22h1.947a.971.971,0,0,0-.942-.974A1.026,1.026,0,0,0,967.245,268.888Z" transform="translate(122.717 215.854)"/>
    <path id="XMLID_14_" class="cls-1" d="M968.113,270.478a1.459,1.459,0,0,1-1.413-1.539,1.44,1.44,0,0,1,1.413-1.539,1.371,1.371,0,0,1,1.319,1.539v.094a.031.031,0,0,1-.031.031H967.14a1.033,1.033,0,0,0,1,1,.893.893,0,0,0,.848-.628.031.031,0,0,1,.031-.031h.031l.314.126c.031,0,.031.031.031.063A1.41,1.41,0,0,1,968.113,270.478Zm0-2.983a1.451,1.451,0,0,0,0,2.889,1.248,1.248,0,0,0,1.162-.785l-.22-.094a.971.971,0,0,1-.911.628,1.119,1.119,0,0,1-1.1-1.131v-.031h2.293v-.063A1.261,1.261,0,0,0,968.113,267.494Zm.942,1.288h-1.979v-.031a1.059,1.059,0,0,1,1.036-1,1.027,1.027,0,0,1,.974,1,.031.031,0,0,1-.031.031Zm-1.884-.063h1.853a.928.928,0,0,0-1.853,0Z" transform="translate(122.854 215.991)"/>
    <path id="XMLID_11_" class="cls-2" d="M972.175,231.935h7.883l-4.365-7.035H946.8v10.646" transform="translate(136.504 245.144)"/>
    <path id="XMLID_10_" class="cls-2" d="M946.8,258.586V262.7h28.955V247.5" transform="translate(136.504 229.642)"/>
    <line id="XMLID_9_" class="cls-2" y1="22.297" transform="translate(1104.283 470.044)"/>
    <path id="XMLID_8_" class="cls-2" d="M998.16,225.3l4.334,6.972s.5,6.721-7.286,7.349H991" transform="translate(106.185 244.87)"/>
    <path id="XMLID_7_" class="cls-2" d="M937.54,224.9l-4.24,7.035h4.146" transform="translate(145.765 245.144)"/>
    <path id="XMLID_6_" class="cls-2" d="M932,258.8h15.388l3.266,3.769-3.3,3.769H932Z" transform="translate(146.656 221.891)"/>
    <line id="XMLID_5_" class="cls-2" y1="4.145" transform="translate(1112.385 461)"/>
    <line id="XMLID_4_" class="cls-2" x2="4.114" transform="translate(1116.436 469.291)"/>
    <line id="XMLID_3_" class="cls-2" y1="2.921" x2="2.921" transform="translate(1115.4 463.387)"/>
  </g>
</svg>
