<svg height="402.77333pt" viewBox="0 0 402.77333 402.77333" width="402.77333pt" xmlns="http://www.w3.org/2000/svg"><path d="m129.707031 395.945312-122.878906-58.734374v-227.597657l122.878906 44.050781zm0 0" fill="#fff"/><path d="m129.707031 402.773438c-1.007812 0-2.015625-.21875-2.949219-.667969l-122.878906-58.734375c-2.367187-1.136719-3.878906-3.53125-3.878906-6.160156v-227.597657c0-2.21875 1.082031-4.300781 2.898438-5.582031 1.808593-1.273438 4.132812-1.582031 6.234374-.84375l122.878907 44.050781c2.714843.972657 4.519531 3.542969 4.519531 6.429688v242.277343c0 2.34375-1.199219 4.523438-3.1875 5.777344-1.105469.699219-2.371094 1.050782-3.636719 1.050782zm-116.054687-69.867188 109.226562 52.210938v-226.648438l-109.226562-39.15625zm0 0"/><path d="m382.292969 395.945312-129.707031-58.734374v-227.597657l129.707031 44.050781zm0 0" fill="#fff"/><path d="m382.292969 402.773438c-.957031 0-1.917969-.199219-2.8125-.605469l-129.707031-58.738281c-2.445313-1.105469-4.011719-3.539063-4.011719-6.21875v-227.597657c0-2.199219 1.058593-4.265625 2.851562-5.550781 1.792969-1.277344 4.101563-1.617188 6.167969-.910156l129.707031 44.050781c2.769531.9375 4.632813 3.539063 4.632813 6.460937v242.28125c0 2.320313-1.179688 4.480469-3.128906 5.738282-1.117188.722656-2.40625 1.089844-3.699219 1.089844zm-122.878907-69.964844 116.050782 52.550781v-226.804687l-116.050782-39.414063zm0 0"/><path d="m129.707031 395.945312 122.878907-58.734374v-227.597657l-122.878907 44.050781zm0 0" fill="#ddd"/><path d="m129.707031 402.773438c-1.265625 0-2.53125-.351563-3.640625-1.050782-1.988281-1.253906-3.1875-3.433594-3.1875-5.777344v-242.28125c0-2.882812 1.808594-5.453124 4.519532-6.429687l122.878906-44.050781c2.109375-.738282 4.421875-.429688 6.234375.84375 1.820312 1.28125 2.898437 3.363281 2.898437 5.582031v227.597656c0 2.628907-1.511718 5.027344-3.878906 6.160157l-122.878906 58.734374c-.933594.453126-1.9375.671876-2.945313.671876zm6.828125-244.304688v226.648438l109.226563-52.210938v-213.59375zm0 0"/><path d="m395.945312 105.941406c0 54.738282-99.113281 165.191406-99.113281 165.191406s-99.113281-110.453124-99.113281-165.191406c0-54.738281 44.371094-99.113281 99.113281-99.113281 54.742188 0 99.113281 44.375 99.113281 99.113281zm0 0" fill="#288eea"/><path d="m296.832031 277.960938c-1.9375 0-3.785156-.824219-5.078125-2.269532-4.121094-4.585937-100.867187-113.042968-100.867187-169.75 0-58.414062 47.527343-105.941406 105.945312-105.941406 58.414063 0 105.941407 47.527344 105.941407 105.941406 0 56.707032-96.742188 165.160156-100.859376 169.75-1.292968 1.445313-3.140624 2.269532-5.082031 2.269532zm0-264.308594c-50.890625 0-92.292969 41.402344-92.292969 92.289062 0 44.617188 72.269532 131.582032 92.292969 154.816406 20.019531-23.238281 92.289063-110.21875 92.289063-154.816406 0-50.886718-41.402344-92.289062-92.289063-92.289062zm0 0"/><path d="m344.554688 105.941406c0 26.355469-21.367188 47.722656-47.722657 47.722656s-47.722656-21.367187-47.722656-47.722656c0-26.355468 21.367187-47.722656 47.722656-47.722656s47.722657 21.367188 47.722657 47.722656zm0 0" fill="#fff"/><path d="m296.832031 160.488281c-30.078125 0-54.550781-24.46875-54.550781-54.546875s24.472656-54.546875 54.550781-54.546875c30.082031 0 54.546875 24.46875 54.546875 54.546875s-24.464844 54.546875-54.546875 54.546875zm0-95.441406c-22.550781 0-40.898437 18.347656-40.898437 40.894531 0 22.550782 18.347656 40.894532 40.898437 40.894532 22.546875 0 40.894531-18.34375 40.894531-40.894532 0-22.546875-18.347656-40.894531-40.894531-40.894531zm0 0"/><path d="m47.785156 177.492188-40.957031 4.097656v138.640625l34.132813-6.203125 47.785156-6.828125 6.828125-47.785157-20.480469-13.652343zm0 0" fill="#ddd"/><path d="m6.828125 327.058594c-1.589844 0-3.140625-.550782-4.375-1.585938-1.550781-1.296875-2.453125-3.214844-2.453125-5.238281v-138.644531c0-3.507813 2.660156-6.441406 6.148438-6.792969l40.957031-4.097656c3.074219-.292969 5.894531 1.445312 7.019531 4.257812l26.523438 66.300781 18.710937 12.476563c2.1875 1.457031 3.339844 4.042969 2.972656 6.648437l-6.824219 47.785157c-.433593 3.003906-2.792968 5.367187-5.796874 5.792969l-47.785157 6.824218-33.878906 6.167969c-.40625.070313-.8125.105469-1.21875.105469zm6.824219-139.292969v124.289063l26.085937-4.742188 42.976563-6.144531 5.492187-38.460938-16.898437-11.265625c-1.148438-.769531-2.039063-1.867187-2.554688-3.144531l-25.398437-63.5zm0 0"/><path d="m225.28125 286.71875-20.480469-13.652344-27.308593 34.132813-20.480469 34.132812 14.785156 34.496094 53.484375-27.667969zm0 0" fill="#777"/><path d="m171.800781 382.652344c-.78125 0-1.5625-.132813-2.308593-.398438-1.78125-.640625-3.21875-1.992187-3.964844-3.734375l-14.789063-34.496093c-.867187-2.015626-.707031-4.320313.421875-6.203126l20.480469-34.132812c.160156-.257812.332031-.511719.519531-.75l27.304688-34.132812c2.214844-2.757813 6.160156-3.386719 9.121094-1.417969l20.480468 13.65625c1.898438 1.265625 3.039063 3.394531 3.039063 5.679687v61.4375c0 2.554688-1.425781 4.890625-3.683594 6.066406l-53.480469 27.664063c-.980468.507813-2.0625.761719-3.140625.761719zm-7.140625-40.796875 10.519532 24.535156 43.273437-22.382813v-53.636718l-12.234375-8.152344-23.105469 28.886719zm0 0"/><path d="m129.707031 200.25 6.828125 4.550781 20.476563-20.480469 40.960937-13.652343-15.035156-36.085938-53.230469 19.082031zm0 0" fill="#777"/><path d="m136.535156 211.625c-1.316406 0-2.636718-.375-3.789062-1.144531l-6.828125-4.550781c-1.898438-1.265626-3.039063-3.394532-3.039063-5.679688v-46.585938c0-2.882812 1.808594-5.453124 4.519532-6.429687l53.234374-19.082031c3.414063-1.230469 7.207032.445312 8.605469 3.800781l15.035157 36.085937c.734374 1.753907.699218 3.726563-.085938 5.453126-.789062 1.726562-2.253906 3.050781-4.054688 3.652343l-39.433593 13.140625-19.339844 19.339844c-1.320313 1.324219-3.066406 2-4.824219 2zm0-53.15625v36.679688l15.652344-15.65625c.746094-.746094 1.660156-1.3125 2.664062-1.648438l33.996094-11.332031-9.714844-23.316407zm0 0"/><path d="m95.574219 177.492188 34.132812 22.757812v-46.585938l-50.976562-18.273437zm0 0" fill="#ddd"/><path d="m129.707031 207.078125c-1.328125 0-2.648437-.386719-3.789062-1.148437l-34.132813-22.757813c-1.144531-.765625-2.039062-1.863281-2.550781-3.140625l-16.839844-42.105469c-.996093-2.496093-.441406-5.34375 1.425781-7.277343 1.859376-1.929688 4.699219-2.585938 7.21875-1.6875l50.972657 18.273437c2.714843.972656 4.519531 3.542969 4.519531 6.429687v46.585938c0 2.515625-1.386719 4.828125-3.605469 6.019531-1.003906.539063-2.113281.808594-3.21875.808594zm-28.582031-34.089844 21.753906 14.503907v-29.027344l-32.179687-11.53125zm0 0"/><path d="m382.292969 270.140625-34.132813 9.753906-13.652344 20.480469-34.132812 6.824219 27.304688 34.132812 54.613281 9.929688zm0 0" fill="#ddd"/><path d="m382.292969 358.089844c-.40625 0-.8125-.035156-1.21875-.109375l-54.613281-9.929688c-1.621094-.292969-3.082032-1.167969-4.113282-2.453125l-27.308594-34.132812c-1.484374-1.863282-1.890624-4.363282-1.078124-6.601563s2.738281-3.890625 5.074218-4.355469l31.359375-6.273437 12.085938-18.128906c.898437-1.347657 2.246093-2.332031 3.804687-2.777344l34.132813-9.753906c2.054687-.59375 4.273437-.171875 5.988281 1.113281 1.707031 1.292969 2.714844 3.308594 2.714844 5.449219v81.125c0 2.023437-.902344 3.945312-2.457032 5.238281-1.230468 1.035156-2.785156 1.589844-4.371093 1.589844zm-50.878907-23.015625 44.050782 8.007812v-63.894531l-23.019532 6.578125-12.257812 18.394531c-1.007812 1.503906-2.566406 2.550782-4.339844 2.90625l-23.136718 4.625zm0 0"/></svg>
